<svg width="100%" height="100%" viewBox="0 0 47 29" version="1.1" xmlns="http://www.w3.org/2000/svg" style="fill-rule:evenodd;clip-rule:evenodd;stroke-linejoin:round;stroke-miterlimit:2;"><path id="comillas" d="M30.322,28.142l11.122,-0c1.771,-2.214 3.127,-4.953 4.067,-8.217c0.941,-3.265 1.411,-6.723 1.411,-10.375c0,-2.546 -0.94,-4.759 -2.822,-6.64c-1.881,-1.882 -4.094,-2.822 -6.64,-2.822c-2.545,-0 -4.703,0.857 -6.474,2.573c-1.77,1.715 -2.656,3.845 -2.656,6.391c0,1.992 0.637,3.79 1.909,5.395c1.273,1.604 2.795,2.683 4.565,3.237c-0.221,1.66 -0.691,3.43 -1.411,5.312c-0.719,1.881 -1.743,3.596 -3.071,5.146Zm-27.722,-0l11.122,-0c1.771,-2.214 3.127,-4.953 4.067,-8.217c0.941,-3.265 1.411,-6.723 1.411,-10.375c0,-2.546 -0.94,-4.759 -2.822,-6.64c-1.881,-1.882 -4.094,-2.822 -6.64,-2.822c-2.545,-0 -4.703,0.857 -6.474,2.573c-1.77,1.715 -2.656,3.845 -2.656,6.391c0,1.992 0.637,3.79 1.909,5.395c1.273,1.604 2.795,2.683 4.565,3.237c-0.221,1.66 -0.691,3.43 -1.411,5.312c-0.719,1.881 -1.743,3.596 -3.071,5.146Z" style="fill:#ba63cc;fill-rule:nonzero;"/></svg>