<?xml version="1.0" encoding="UTF-8" standalone="no"?>
<!DOCTYPE svg PUBLIC "-//W3C//DTD SVG 1.1//EN" "http://www.w3.org/Graphics/SVG/1.1/DTD/svg11.dtd">
<svg width="100%" height="100%" viewBox="0 0 628 47" version="1.1" xmlns="http://www.w3.org/2000/svg" xmlns:xlink="http://www.w3.org/1999/xlink" xml:space="preserve" xmlns:serif="http://www.serif.com/" style="fill-rule:evenodd;clip-rule:evenodd;stroke-linejoin:round;stroke-miterlimit:2;">
    <g transform="matrix(1,0,0,1,-198,-271)">
        <g transform="matrix(1,0,0,1,-32.0627,-57.7867)">
            <g id="GOROGOROIL">
                <path d="M252.377,375.399C245.169,375.399 239.74,373.449 236.091,369.551C232.441,365.652 230.617,360.371 230.617,353.707C230.617,348.901 231.41,344.742 232.997,341.229C234.583,337.715 236.997,335.007 240.239,333.103C243.48,331.199 247.594,330.247 252.581,330.247C255.165,330.247 257.511,330.417 259.619,330.757C261.727,331.097 263.71,331.584 265.569,332.219L265.569,338.611C261.851,337.251 257.726,336.571 253.193,336.571C247.617,336.571 243.707,338.044 241.463,340.991C239.219,343.937 238.097,348.176 238.097,353.707C238.097,358.739 239.275,362.569 241.633,365.199C243.99,367.828 247.639,369.143 252.581,369.143C256.479,369.143 259.63,368.689 262.033,367.783L262.033,355.543L251.085,355.543L251.085,350.715L268.357,350.715L268.357,371.795C266.951,372.701 264.945,373.529 262.339,374.277C259.732,375.025 256.411,375.399 252.377,375.399Z" style="fill-rule:nonzero;"/>
                <path d="M291.001,375.399C285.198,375.399 280.948,373.948 278.251,371.047C275.553,368.145 274.205,363.997 274.205,358.603C274.205,353.208 275.565,349.06 278.285,346.159C281.005,343.257 285.243,341.807 291.001,341.807C296.803,341.807 301.065,343.257 303.785,346.159C306.505,349.06 307.865,353.208 307.865,358.603C307.865,363.997 306.516,368.145 303.819,371.047C301.121,373.948 296.849,375.399 291.001,375.399ZM291.001,369.143C294.401,369.143 296.815,368.315 298.243,366.661C299.671,365.006 300.385,362.32 300.385,358.603C300.385,354.885 299.671,352.211 298.243,350.579C296.815,348.947 294.401,348.131 291.001,348.131C287.646,348.131 285.255,348.947 283.827,350.579C282.399,352.211 281.685,354.885 281.685,358.603C281.685,362.32 282.399,365.006 283.827,366.661C285.255,368.315 287.646,369.143 291.001,369.143Z" style="fill-rule:nonzero;"/>
                <path d="M315.073,374.719L315.073,342.487L321.873,342.487L322.281,346.227C323.822,345.229 325.658,344.323 327.789,343.507C329.919,342.691 332.027,342.124 334.113,341.807L334.113,347.451C332.843,347.677 331.472,348.006 329.999,348.437C328.525,348.867 327.131,349.343 325.817,349.865C324.502,350.386 323.391,350.919 322.485,351.463L322.485,374.719L315.073,374.719Z" style="fill-rule:nonzero;"/>
                <path d="M353.561,375.399C347.758,375.399 343.508,373.948 340.811,371.047C338.113,368.145 336.765,363.997 336.765,358.603C336.765,353.208 338.125,349.06 340.845,346.159C343.565,343.257 347.803,341.807 353.561,341.807C359.363,341.807 363.625,343.257 366.345,346.159C369.065,349.06 370.425,353.208 370.425,358.603C370.425,363.997 369.076,368.145 366.379,371.047C363.681,373.948 359.409,375.399 353.561,375.399ZM353.561,369.143C356.961,369.143 359.375,368.315 360.803,366.661C362.231,365.006 362.945,362.32 362.945,358.603C362.945,354.885 362.231,352.211 360.803,350.579C359.375,348.947 356.961,348.131 353.561,348.131C350.206,348.131 347.815,348.947 346.387,350.579C344.959,352.211 344.245,354.885 344.245,358.603C344.245,362.32 344.959,365.006 346.387,366.661C347.815,368.315 350.206,369.143 353.561,369.143Z" style="fill-rule:nonzero;"/>
                <path d="M413.673,375.399C406.465,375.399 401.036,373.449 397.387,369.551C393.737,365.652 391.913,360.371 391.913,353.707C391.913,348.901 392.706,344.742 394.293,341.229C395.879,337.715 398.293,335.007 401.535,333.103C404.776,331.199 408.89,330.247 413.877,330.247C416.461,330.247 418.807,330.417 420.915,330.757C423.023,331.097 425.006,331.584 426.865,332.219L426.865,338.611C423.147,337.251 419.022,336.571 414.489,336.571C408.913,336.571 405.003,338.044 402.759,340.991C400.515,343.937 399.393,348.176 399.393,353.707C399.393,358.739 400.571,362.569 402.929,365.199C405.286,367.828 408.935,369.143 413.877,369.143C417.775,369.143 420.926,368.689 423.329,367.783L423.329,355.543L412.381,355.543L412.381,350.715L429.653,350.715L429.653,371.795C428.247,372.701 426.241,373.529 423.635,374.277C421.028,375.025 417.707,375.399 413.673,375.399Z" style="fill-rule:nonzero;"/>
                <path d="M452.297,375.399C446.494,375.399 442.244,373.948 439.547,371.047C436.849,368.145 435.501,363.997 435.501,358.603C435.501,353.208 436.861,349.06 439.581,346.159C442.301,343.257 446.539,341.807 452.297,341.807C458.099,341.807 462.361,343.257 465.081,346.159C467.801,349.06 469.161,353.208 469.161,358.603C469.161,363.997 467.812,368.145 465.115,371.047C462.417,373.948 458.145,375.399 452.297,375.399ZM452.297,369.143C455.697,369.143 458.111,368.315 459.539,366.661C460.967,365.006 461.681,362.32 461.681,358.603C461.681,354.885 460.967,352.211 459.539,350.579C458.111,348.947 455.697,348.131 452.297,348.131C448.942,348.131 446.551,348.947 445.123,350.579C443.695,352.211 442.981,354.885 442.981,358.603C442.981,362.32 443.695,365.006 445.123,366.661C446.551,368.315 448.942,369.143 452.297,369.143Z" style="fill-rule:nonzero;"/>
                <path d="M476.369,374.719L476.369,342.487L483.169,342.487L483.577,346.227C485.118,345.229 486.954,344.323 489.085,343.507C491.215,342.691 493.323,342.124 495.409,341.807L495.409,347.451C494.139,347.677 492.768,348.006 491.295,348.437C489.821,348.867 488.427,349.343 487.113,349.865C485.798,350.386 484.687,350.919 483.781,351.463L483.781,374.719L476.369,374.719Z" style="fill-rule:nonzero;"/>
                <path d="M514.857,375.399C509.054,375.399 504.804,373.948 502.107,371.047C499.409,368.145 498.061,363.997 498.061,358.603C498.061,353.208 499.421,349.06 502.141,346.159C504.861,343.257 509.099,341.807 514.857,341.807C520.659,341.807 524.921,343.257 527.641,346.159C530.361,349.06 531.721,353.208 531.721,358.603C531.721,363.997 530.372,368.145 527.675,371.047C524.977,373.948 520.705,375.399 514.857,375.399ZM514.857,369.143C518.257,369.143 520.671,368.315 522.099,366.661C523.527,365.006 524.241,362.32 524.241,358.603C524.241,354.885 523.527,352.211 522.099,350.579C520.671,348.947 518.257,348.131 514.857,348.131C511.502,348.131 509.111,348.947 507.683,350.579C506.255,352.211 505.541,354.885 505.541,358.603C505.541,362.32 506.255,365.006 507.683,366.661C509.111,368.315 511.502,369.143 514.857,369.143Z" style="fill-rule:nonzero;"/>
                <rect x="554.569" y="330.927" width="7.412" height="43.792" style="fill-rule:nonzero;"/>
                <path d="M570.549,374.719L570.549,330.927L577.961,330.927L577.961,369.007L600.401,369.007L600.401,374.719L570.549,374.719Z" style="fill-rule:nonzero;"/>
                <path d="M621.889,374.719L621.889,330.927L642.017,330.927C646.913,330.927 650.483,332.185 652.727,334.701C654.971,337.217 656.093,340.628 656.093,344.935C656.093,348.017 655.322,350.647 653.781,352.823C652.239,354.999 650.018,356.517 647.117,357.379C647.933,357.968 648.567,358.603 649.021,359.283C649.474,359.963 649.927,360.869 650.381,362.003L655.889,374.719L648.273,374.719L642.901,362.479C642.402,361.3 641.801,360.461 641.099,359.963C640.396,359.464 639.206,359.215 637.529,359.215L629.301,359.215L629.301,374.719L621.889,374.719ZM629.301,353.231L640.045,353.231C642.719,353.231 644.827,352.573 646.369,351.259C647.91,349.944 648.681,347.836 648.681,344.935C648.681,339.449 646.029,336.707 640.725,336.707L629.301,336.707L629.301,353.231Z" style="fill-rule:nonzero;"/>
                <path d="M678.669,375.399C673.047,375.399 668.695,374.016 665.613,371.251C662.53,368.485 660.989,364.247 660.989,358.535C660.989,353.367 662.303,349.287 664.933,346.295C667.562,343.303 671.551,341.807 676.901,341.807C681.797,341.807 685.48,343.087 687.951,345.649C690.421,348.21 691.657,351.508 691.657,355.543L691.657,361.527L668.061,361.527C668.423,364.655 669.557,366.808 671.461,367.987C673.365,369.165 676.266,369.755 680.165,369.755C681.797,369.755 683.474,369.596 685.197,369.279C686.919,368.961 688.415,368.553 689.685,368.055L689.685,373.495C688.234,374.129 686.568,374.605 684.687,374.923C682.805,375.24 680.799,375.399 678.669,375.399ZM668.061,356.699L685.129,356.699L685.129,354.455C685.129,352.233 684.517,350.499 683.293,349.253C682.069,348.006 680.006,347.383 677.105,347.383C673.659,347.383 671.291,348.131 669.999,349.627C668.707,351.123 668.061,353.48 668.061,356.699Z" style="fill-rule:nonzero;"/>
                <path d="M714.709,375.399C709.042,375.399 704.758,373.959 701.857,371.081C698.955,368.202 697.505,364.043 697.505,358.603C697.505,352.936 699.103,348.72 702.299,345.955C705.495,343.189 709.767,341.807 715.117,341.807C717.338,341.807 719.208,341.965 720.727,342.283C722.245,342.6 723.707,343.099 725.113,343.779L725.113,349.287C722.755,348.108 719.899,347.519 716.545,347.519C712.827,347.519 709.971,348.346 707.977,350.001C705.982,351.655 704.985,354.523 704.985,358.603C704.985,362.456 705.869,365.278 707.637,367.069C709.405,368.859 712.329,369.755 716.409,369.755C719.627,369.755 722.551,369.143 725.181,367.919L725.181,373.563C723.685,374.152 722.087,374.605 720.387,374.923C718.687,375.24 716.794,375.399 714.709,375.399Z" style="fill-rule:nonzero;"/>
                <path d="M746.533,375.399C740.73,375.399 736.48,373.948 733.783,371.047C731.085,368.145 729.737,363.997 729.737,358.603C729.737,353.208 731.097,349.06 733.817,346.159C736.537,343.257 740.775,341.807 746.533,341.807C752.335,341.807 756.597,343.257 759.317,346.159C762.037,349.06 763.397,353.208 763.397,358.603C763.397,363.997 762.048,368.145 759.351,371.047C756.653,373.948 752.381,375.399 746.533,375.399ZM746.533,369.143C749.933,369.143 752.347,368.315 753.775,366.661C755.203,365.006 755.917,362.32 755.917,358.603C755.917,354.885 755.203,352.211 753.775,350.579C752.347,348.947 749.933,348.131 746.533,348.131C743.178,348.131 740.787,348.947 739.359,350.579C737.931,352.211 737.217,354.885 737.217,358.603C737.217,362.32 737.931,365.006 739.359,366.661C740.787,368.315 743.178,369.143 746.533,369.143Z" style="fill-rule:nonzero;"/>
                <path d="M770.605,374.719L770.605,342.487L777.405,342.487L777.813,346.227C779.354,345.229 781.19,344.323 783.321,343.507C785.451,342.691 787.559,342.124 789.645,341.807L789.645,347.451C788.375,347.677 787.004,348.006 785.531,348.437C784.057,348.867 782.663,349.343 781.349,349.865C780.034,350.386 778.923,350.919 778.017,351.463L778.017,374.719L770.605,374.719Z" style="fill-rule:nonzero;"/>
                <path d="M806.985,375.399C804.083,375.399 801.522,374.9 799.301,373.903C797.079,372.905 795.357,371.251 794.133,368.939C792.909,366.627 792.297,363.521 792.297,359.623C792.297,355.769 792.954,352.517 794.269,349.865C795.583,347.213 797.408,345.207 799.743,343.847C802.077,342.487 804.718,341.807 807.665,341.807C809.614,341.807 811.348,342.033 812.867,342.487C814.385,342.94 815.847,343.643 817.253,344.595L817.253,328.887L824.665,328.887L824.665,374.719L818.341,374.719L817.865,371.523C816.414,372.837 814.827,373.812 813.105,374.447C811.382,375.081 809.342,375.399 806.985,375.399ZM808.957,369.823C812.266,369.823 815.031,368.689 817.253,366.423L817.253,350.307C815.122,348.403 812.447,347.451 809.229,347.451C806.101,347.451 803.743,348.493 802.157,350.579C800.57,352.664 799.777,355.701 799.777,359.691C799.777,363.544 800.513,366.196 801.987,367.647C803.46,369.097 805.783,369.823 808.957,369.823Z" style="fill-rule:nonzero;"/>
                <path d="M843.977,375.399C841.755,375.399 839.636,375.24 837.619,374.923C835.601,374.605 833.935,374.22 832.621,373.767L832.621,367.511C834.162,368.1 835.862,368.553 837.721,368.871C839.579,369.188 841.347,369.347 843.025,369.347C845.563,369.347 847.377,369.12 848.465,368.667C849.553,368.213 850.097,367.329 850.097,366.015C850.097,365.063 849.768,364.315 849.111,363.771C848.453,363.227 847.479,362.728 846.187,362.275C844.895,361.821 843.251,361.277 841.257,360.643C839.353,360.008 837.698,359.317 836.293,358.569C834.887,357.821 833.799,356.857 833.029,355.679C832.258,354.5 831.873,352.959 831.873,351.055C831.873,348.108 832.938,345.83 835.069,344.221C837.199,342.611 840.622,341.807 845.337,341.807C847.195,341.807 848.963,341.943 850.641,342.215C852.318,342.487 853.746,342.827 854.925,343.235L854.925,349.423C853.655,348.924 852.261,348.539 850.743,348.267C849.224,347.995 847.807,347.859 846.493,347.859C844.135,347.859 842.356,348.063 841.155,348.471C839.953,348.879 839.353,349.695 839.353,350.919C839.353,352.188 839.976,353.083 841.223,353.605C842.469,354.126 844.475,354.84 847.241,355.747C849.779,356.517 851.797,357.333 853.293,358.195C854.789,359.056 855.865,360.087 856.523,361.289C857.18,362.49 857.509,364.043 857.509,365.947C857.509,369.12 856.353,371.489 854.041,373.053C851.729,374.617 848.374,375.399 843.977,375.399Z" style="fill-rule:nonzero;"/>
            </g>
        </g>
    </g>
</svg>
