<svg width="100%" height="100%" viewBox="0 0 27 19" version="1.1" xmlns="http://www.w3.org/2000/svg" style="fill-rule:evenodd;clip-rule:evenodd;stroke-linejoin:round;stroke-miterlimit:2;"><path id="youTube" d="M10.684,13.413l-0,-7.717l6.683,3.858l-6.683,3.859Zm14.897,-10.05c-0.296,-1.107 -1.168,-1.979 -2.275,-2.274c-2.006,-0.538 -10.05,-0.538 -10.05,-0.538c0,-0 -8.044,-0 -10.05,0.538c-1.106,0.295 -1.978,1.167 -2.274,2.274c-0.537,2.006 -0.537,6.191 -0.537,6.191c-0,0 -0,4.186 0.537,6.192c0.296,1.106 1.168,1.978 2.274,2.274c2.006,0.537 10.05,0.537 10.05,0.537c0,0 8.044,0 10.05,-0.537c1.107,-0.296 1.979,-1.168 2.275,-2.274c0.537,-2.006 0.537,-6.192 0.537,-6.192c0,0 0,-4.185 -0.537,-6.191" style="fill:#cdcdcd;fill-rule:nonzero;"/></svg>