<svg width="100%" height="100%" viewBox="0 0 19 19" version="1.1" xmlns="http://www.w3.org/2000/svg" style="fill-rule:evenodd;clip-rule:evenodd;stroke-linejoin:round;stroke-miterlimit:2;"><g id="instagram"><path d="M9.498,0.018c-2.579,-0 -2.902,0.011 -3.915,0.057c-1.011,0.046 -1.701,0.206 -2.306,0.441c-0.624,0.243 -1.154,0.568 -1.682,1.096c-0.528,0.528 -0.852,1.057 -1.095,1.682c-0.235,0.604 -0.395,1.294 -0.442,2.305c-0.046,1.013 -0.057,1.336 -0.057,3.916c0,2.579 0.011,2.902 0.057,3.915c0.047,1.011 0.207,1.702 0.442,2.306c0.243,0.624 0.567,1.154 1.095,1.682c0.528,0.528 1.058,0.853 1.682,1.095c0.605,0.235 1.295,0.396 2.306,0.442c1.013,0.046 1.336,0.057 3.915,0.057c2.58,-0 2.903,-0.011 3.916,-0.057c1.011,-0.046 1.701,-0.207 2.305,-0.442c0.625,-0.242 1.155,-0.567 1.683,-1.095c0.528,-0.528 0.852,-1.058 1.095,-1.682c0.235,-0.604 0.395,-1.295 0.441,-2.306c0.047,-1.013 0.058,-1.336 0.058,-3.915c-0,-2.58 -0.011,-2.903 -0.058,-3.916c-0.046,-1.011 -0.206,-1.701 -0.441,-2.305c-0.243,-0.625 -0.567,-1.154 -1.095,-1.682c-0.528,-0.528 -1.058,-0.853 -1.683,-1.096c-0.604,-0.235 -1.294,-0.395 -2.305,-0.441c-1.013,-0.046 -1.336,-0.057 -3.916,-0.057Zm0,1.711c2.536,-0 2.837,0.009 3.838,0.055c0.926,0.042 1.429,0.197 1.764,0.327c0.443,0.172 0.759,0.378 1.092,0.711c0.332,0.332 0.538,0.648 0.71,1.092c0.13,0.334 0.285,0.837 0.327,1.763c0.046,1.002 0.055,1.302 0.055,3.838c0,2.536 -0.009,2.836 -0.055,3.837c-0.042,0.926 -0.197,1.429 -0.327,1.764c-0.172,0.443 -0.378,0.76 -0.71,1.092c-0.333,0.332 -0.649,0.538 -1.092,0.71c-0.335,0.13 -0.838,0.285 -1.764,0.327c-1.001,0.046 -1.302,0.056 -3.838,0.056c-2.536,-0 -2.836,-0.01 -3.837,-0.056c-0.926,-0.042 -1.429,-0.197 -1.764,-0.327c-0.443,-0.172 -0.759,-0.378 -1.092,-0.71c-0.332,-0.332 -0.538,-0.649 -0.71,-1.092c-0.13,-0.335 -0.285,-0.838 -0.327,-1.764c-0.046,-1.001 -0.055,-1.301 -0.055,-3.837c-0,-2.536 0.009,-2.836 0.055,-3.838c0.042,-0.926 0.197,-1.429 0.327,-1.763c0.172,-0.444 0.378,-0.76 0.71,-1.092c0.333,-0.333 0.649,-0.539 1.092,-0.711c0.335,-0.13 0.838,-0.285 1.764,-0.327c1.001,-0.046 1.302,-0.055 3.837,-0.055Z" style="fill:#cdcdcd;fill-rule:nonzero;"/><path d="M9.498,12.68c-1.748,0 -3.165,-1.417 -3.165,-3.165c-0,-1.749 1.417,-3.166 3.165,-3.166c1.749,0 3.166,1.417 3.166,3.166c0,1.748 -1.417,3.165 -3.166,3.165Zm0,-8.042c-2.693,-0 -4.876,2.183 -4.876,4.877c-0,2.693 2.183,4.877 4.876,4.877c2.694,-0 4.877,-2.184 4.877,-4.877c0,-2.694 -2.183,-4.877 -4.877,-4.877Z" style="fill:#cdcdcd;fill-rule:nonzero;"/><path d="M15.708,4.445c-0,0.63 -0.511,1.14 -1.14,1.14c-0.629,-0 -1.14,-0.51 -1.14,-1.14c0,-0.629 0.511,-1.139 1.14,-1.139c0.629,-0 1.14,0.51 1.14,1.139Z" style="fill:#cdcdcd;fill-rule:nonzero;"/></g></svg>