<svg width="100%" height="100%" viewBox="0 0 67 83" version="1.1" xmlns="http://www.w3.org/2000/svg" style="fill-rule:evenodd;clip-rule:evenodd;stroke-linejoin:round;stroke-miterlimit:2;"><path id="bocina" d="M5.704,31.182c-2.878,0.585 -5.043,3.129 -5.043,6.179c0,3.719 0,4.41 0,8.13c0,3.049 2.165,5.594 5.043,6.179l-0,25.051c-0,2.218 1.326,4.22 3.369,5.085c2.042,0.865 4.404,0.424 5.996,-1.119l18.543,-17.969c0.191,-0.185 0.446,-0.288 0.712,-0.288c2.067,-0 6.12,-0 9.004,-0c3.05,-0 5.522,-2.473 5.522,-5.523c0,-7.102 0,-23.86 0,-30.963c0,-3.05 -2.472,-5.522 -5.522,-5.522c-2.87,-0 -6.898,-0 -8.974,-0c-0.271,-0 -0.532,-0.108 -0.723,-0.3l-18.5,-18.499c-1.579,-1.58 -3.955,-2.052 -6.018,-1.197c-2.064,0.854 -3.409,2.868 -3.409,5.102l-0,25.654Zm24.777,28.304l-18.543,17.969c-0.295,0.286 -0.732,0.368 -1.111,0.207c-0.378,-0.16 -0.623,-0.53 -0.623,-0.941c-0,-0 -0,-71.193 -0,-71.193c-0,-0.414 0.249,-0.787 0.631,-0.945c0.382,-0.158 0.822,-0.071 1.114,0.222c0,-0 18.5,18.499 18.5,18.499c1.035,1.036 2.44,1.618 3.905,1.618c-0,-0 8.974,-0 8.974,-0c0.564,-0 1.022,0.458 1.022,1.022c0,7.103 0,23.861 0,30.963c0,0.565 -0.458,1.023 -1.022,1.023c-0,-0 -9.004,-0 -9.004,-0c-1.435,-0 -2.813,0.558 -3.843,1.556Zm22.618,-5.001c-0,1.807 1.465,3.272 3.272,3.272c2.138,0 4.919,0 7.057,0c1.808,0 3.273,-1.465 3.273,-3.272c-0,-6.259 -0,-19.859 -0,-26.118c-0,-1.808 -1.465,-3.273 -3.273,-3.273c-2.138,0 -4.919,0 -7.057,0c-1.807,0 -3.272,1.465 -3.272,3.273c-0,6.259 -0,19.859 -0,26.118Z" style="fill:#ba63cc;"/></svg>