<svg width="100%" height="100%" viewBox="0 0 701 119" version="1.1" xmlns="http://www.w3.org/2000/svg" style="fill-rule:evenodd;clip-rule:evenodd;stroke-linejoin:round;stroke-miterlimit:2;"><g id="logo_goroGoro"><g><path d="M27.808,43.685c0,0.864 0.702,1.565 1.567,1.565l20.2,0c-0,0 -0,17.265 -0,17.265c-4.6,2.072 -9.05,3.119 -13.355,3.119c-8.169,-0 -15.169,-2.948 -21.004,-8.837c-5.84,-5.894 -8.763,-12.94 -8.763,-21.141c0,-8.199 2.922,-15.23 8.76,-21.094c5.836,-5.862 12.837,-8.796 21.007,-8.796c6.063,0 11.707,1.786 16.936,5.344c0.48,0.327 1.101,0.361 1.614,0.09c0.513,-0.271 0.834,-0.804 0.834,-1.384l-0,-3.246c-0,-0.557 -0.296,-1.072 -0.777,-1.353c-5.866,-3.42 -12.069,-5.127 -18.607,-5.127c-9.79,0 -18.204,3.499 -25.241,10.503c-7.039,7.007 -10.554,15.377 -10.554,25.107c-0,6.184 1.574,12.016 4.728,17.496c3.147,5.467 7.439,9.85 12.877,13.149c5.458,3.311 11.347,4.965 17.664,4.965l0.965,-0c6.745,-0 12.813,-1.693 18.209,-5.064c0.457,-0.286 0.736,-0.788 0.736,-1.328l-0,-23.778c-0,-0.865 -0.702,-1.566 -1.567,-1.566l-24.662,0c-0.865,0 -1.567,0.701 -1.567,1.566l0,2.545Zm24.588,-0.937c0.015,0.02 0.029,0.041 0.044,0.061l0.031,0.049l0,-0.152l-0.108,-0l0.033,0.042Z" style="fill:#bc61cd;"/><path d="M118.284,71.485l1.316,0c9.621,0 17.897,-3.56 24.822,-10.697c6.911,-7.123 10.36,-15.502 10.36,-25.132c-0,-9.64 -3.485,-17.951 -10.464,-24.929c-6.977,-6.974 -15.392,-10.461 -25.244,-10.461c-9.85,-0 -18.294,3.5 -25.329,10.503c-7.042,7.009 -10.555,15.307 -10.555,24.887c0,9.569 3.462,17.934 10.404,25.088c6.956,7.169 15.19,10.741 24.69,10.741Zm30.469,-35.609c0,8.172 -2.923,15.203 -8.762,21.097c-5.835,5.889 -12.836,8.836 -21.005,8.836c-8.169,0 -15.17,-2.947 -21.005,-8.836c-5.84,-5.894 -8.762,-12.94 -8.762,-21.141c-0,-8.199 2.921,-15.23 8.76,-21.095c5.836,-5.862 12.852,-8.795 21.051,-8.795c8.197,-0 15.198,2.932 21.005,8.793c5.812,5.865 8.718,12.912 8.718,21.141Z" style="fill:#bc61cd;"/><path d="M193.001,46.273c4.358,-0.64 8.488,-2.776 12.373,-6.453c4.725,-4.472 7.072,-9.755 7.072,-15.833c-0,-6.073 -2.299,-11.364 -6.925,-15.864c-4.613,-4.486 -9.969,-6.717 -16.057,-6.717l-3.774,0c-0.865,0 -1.566,0.701 -1.566,1.566l-0,65.807c-0,0.865 0.701,1.566 1.566,1.566l2.809,-0c0.865,-0 1.566,-0.701 1.566,-1.566l-0,-16.972c5.444,5.706 17.224,18.053 17.224,18.053c0.295,0.31 0.705,0.485 1.133,0.485l3.774,-0c0.626,-0 1.192,-0.373 1.439,-0.948c0.247,-0.575 0.128,-1.241 -0.303,-1.695l-20.331,-21.429Zm-2.936,-39.185c4.217,0.107 7.975,1.81 11.29,5.072c3.425,3.37 5.15,7.323 5.15,11.87c-0,4.547 -1.666,8.475 -4.983,11.791c-3.31,3.309 -7.119,4.982 -11.444,4.982l-0.013,-0l-0,-33.715Zm-2.809,-2.524l0,-0.026l0.02,-0l-0.02,0.026Z" style="fill:#bc61cd;"/><path d="M274.248,71.485l1.317,0c9.621,0 17.897,-3.56 24.821,-10.697c6.911,-7.123 10.36,-15.502 10.36,-25.132c0,-9.64 -3.484,-17.951 -10.464,-24.929c-6.977,-6.974 -15.391,-10.461 -25.244,-10.461c-9.85,-0 -18.293,3.5 -25.329,10.503c-7.042,7.009 -10.555,15.307 -10.555,24.887c0,9.569 3.462,17.934 10.404,25.088c6.957,7.169 15.19,10.741 24.69,10.741Zm30.469,-35.609c0,8.172 -2.923,15.203 -8.762,21.097c-5.835,5.889 -12.835,8.836 -21.005,8.836c-8.169,0 -15.169,-2.947 -21.005,-8.836c-5.839,-5.894 -8.762,-12.94 -8.762,-21.141c0,-8.199 2.922,-15.23 8.76,-21.095c5.836,-5.862 12.853,-8.795 21.051,-8.795c8.197,-0 15.198,2.932 21.005,8.793c5.812,5.865 8.718,12.912 8.718,21.141Z" style="fill:#bc61cd;"/><path d="M417.5,43.685c-0,0.864 0.701,1.565 1.566,1.565l20.2,0c0,0 0,17.265 0,17.265c-4.6,2.072 -9.05,3.119 -13.354,3.119c-8.169,-0 -15.17,-2.948 -21.005,-8.837c-5.84,-5.894 -8.762,-12.94 -8.762,-21.141c-0,-8.199 2.921,-15.23 8.759,-21.094c5.836,-5.862 12.838,-8.796 21.008,-8.796c6.063,0 11.707,1.786 16.935,5.344c0.48,0.327 1.101,0.361 1.614,0.09c0.513,-0.271 0.834,-0.804 0.834,-1.384l0,-3.246c0,-0.557 -0.296,-1.072 -0.777,-1.353c-5.866,-3.42 -12.068,-5.127 -18.606,-5.127c-9.79,0 -18.205,3.499 -25.241,10.503c-7.04,7.007 -10.555,15.377 -10.555,25.107c0,6.184 1.575,12.016 4.729,17.496c3.147,5.467 7.438,9.85 12.876,13.149c5.459,3.311 11.347,4.965 17.664,4.965l0.966,-0c6.744,-0 12.812,-1.693 18.208,-5.064c0.458,-0.286 0.736,-0.788 0.736,-1.328l0,-23.778c0,-0.865 -0.701,-1.566 -1.566,-1.566l-24.663,0c-0.865,0 -1.566,0.701 -1.566,1.566l-0,2.545Zm24.588,-0.937c0.014,0.02 0.029,0.041 0.043,0.061l0.032,0.049l-0,-0.152l-0.108,-0l0.033,0.042Z" style="fill:#bc61cd;"/><path d="M507.975,71.485l1.317,0c9.621,0 17.897,-3.56 24.822,-10.697c6.91,-7.123 10.359,-15.502 10.359,-25.132c0,-9.64 -3.484,-17.951 -10.464,-24.929c-6.976,-6.974 -15.391,-10.461 -25.244,-10.461c-9.85,-0 -18.293,3.5 -25.329,10.503c-7.042,7.009 -10.554,15.307 -10.554,24.887c-0,9.569 3.462,17.934 10.403,25.088c6.957,7.169 15.19,10.741 24.69,10.741Zm30.47,-35.609c-0,8.172 -2.923,15.203 -8.763,21.097c-5.835,5.889 -12.835,8.836 -21.005,8.836c-8.169,0 -15.169,-2.947 -21.004,-8.836c-5.84,-5.894 -8.763,-12.94 -8.763,-21.141c0,-8.199 2.922,-15.23 8.76,-21.095c5.836,-5.862 12.853,-8.795 21.051,-8.795c8.197,-0 15.198,2.932 21.005,8.793c5.812,5.865 8.719,12.912 8.719,21.141Z" style="fill:#bc61cd;"/><path d="M582.692,46.273c4.358,-0.64 8.489,-2.776 12.373,-6.453c4.726,-4.472 7.072,-9.755 7.072,-15.833c0,-6.073 -2.299,-11.364 -6.925,-15.864c-4.613,-4.486 -9.969,-6.717 -16.057,-6.717l-3.774,0c-0.865,0 -1.566,0.701 -1.566,1.566l0,65.807c0,0.865 0.701,1.566 1.566,1.566l2.809,-0c0.865,-0 1.566,-0.701 1.566,-1.566l0,-16.972c0,-0 17.224,18.053 17.224,18.053c0.296,0.31 0.705,0.485 1.133,0.485l3.774,-0c0.626,-0 1.192,-0.373 1.439,-0.948c0.248,-0.575 0.129,-1.241 -0.302,-1.695l-20.332,-21.429Zm-2.936,-39.185c4.217,0.107 7.975,1.81 11.29,5.072c3.425,3.37 5.15,7.323 5.15,11.87c0,4.547 -1.666,8.475 -4.983,11.791c-3.31,3.309 -7.119,4.982 -11.443,4.982l-0.014,-0l0,-33.715Zm-2.808,-2.524l-0,-0.026l0.02,-0l-0.02,0.026Z" style="fill:#bc61cd;"/><path d="M663.94,71.485l1.316,0c9.621,0 17.897,-3.56 24.822,-10.697c6.911,-7.123 10.36,-15.502 10.36,-25.132c-0,-9.64 -3.485,-17.951 -10.465,-24.929c-6.976,-6.974 -15.391,-10.461 -25.243,-10.461c-9.85,-0 -18.294,3.5 -25.33,10.503c-7.041,7.009 -10.554,15.307 -10.554,24.887c-0,9.569 3.462,17.934 10.404,25.088c6.956,7.169 15.19,10.741 24.69,10.741Zm30.469,-35.609c-0,8.172 -2.923,15.203 -8.762,21.097c-5.835,5.889 -12.836,8.836 -21.005,8.836c-8.169,0 -15.17,-2.947 -21.005,-8.836c-5.84,-5.894 -8.762,-12.94 -8.762,-21.141c-0,-8.199 2.921,-15.23 8.759,-21.095c5.837,-5.862 12.853,-8.795 21.052,-8.795c8.196,-0 15.197,2.932 21.005,8.793c5.811,5.865 8.718,12.912 8.718,21.141Z" style="fill:#bc61cd;"/></g><g><path d="M204.752,91.87c-0.736,0 -1.332,0.596 -1.332,1.331l0,23.12c0,0.735 0.596,1.331 1.332,1.331l1.017,-0c0.735,-0 1.331,-0.596 1.331,-1.331l0,-23.12c0,-0.735 -0.596,-1.331 -1.331,-1.331l-1.017,0Z" style="fill:#a3a3a3;"/><path d="M243.301,93.201c-0,-0.735 -0.596,-1.331 -1.332,-1.331l-1.418,0c-0.509,0 -0.973,0.29 -1.196,0.747c-0,0 -6.486,13.274 -9.225,18.88c0,-0 -9.196,-18.878 -9.196,-18.878c-0.223,-0.458 -0.687,-0.749 -1.197,-0.749l-1.48,0c-0.735,0 -1.331,0.596 -1.331,1.331l-0,23.12c-0,0.735 0.596,1.331 1.331,1.331l0.925,-0c0.736,-0 1.332,-0.596 1.332,-1.331l-0,-16.129c-0,-0 8.325,17.142 8.325,17.142c0.222,0.458 0.686,0.749 1.196,0.749c0.509,0.001 0.974,-0.289 1.197,-0.747l8.388,-17.173c0,6.493 0,16.158 0,16.158c0,0.735 0.597,1.331 1.332,1.331l1.017,-0c0.736,-0 1.332,-0.596 1.332,-1.331l-0,-23.12Z" style="fill:#a3a3a3;"/><path d="M279.347,93.201c-0,-0.735 -0.596,-1.331 -1.332,-1.331l-1.418,0c-0.509,0 -0.973,0.29 -1.196,0.747c-0,0 -6.486,13.274 -9.225,18.88c0,-0 -9.196,-18.878 -9.196,-18.878c-0.223,-0.458 -0.687,-0.749 -1.197,-0.749l-1.48,0c-0.735,0 -1.331,0.596 -1.331,1.331l-0,23.12c-0,0.735 0.596,1.331 1.331,1.331l0.925,-0c0.736,-0 1.332,-0.596 1.332,-1.331l-0,-16.129c-0,-0 8.325,17.142 8.325,17.142c0.222,0.458 0.686,0.749 1.196,0.749c0.509,0.001 0.974,-0.289 1.198,-0.747l8.387,-17.173c0,6.493 0,16.158 0,16.158c0,0.735 0.597,1.331 1.332,1.331l1.017,-0c0.736,-0 1.332,-0.596 1.332,-1.331l-0,-23.12Z" style="fill:#a3a3a3;"/><path d="M290.349,91.87c-0.735,0 -1.331,0.596 -1.331,1.331l0,23.12c0,0.735 0.596,1.331 1.331,1.331l8.295,-0c0.735,-0 1.331,-0.596 1.331,-1.331l0,-0.894c0,-0.735 -0.596,-1.331 -1.331,-1.331l-5.946,-0c0,-0 0,-5.199 0,-5.199c0,0 4.743,0 4.743,0c0.736,0 1.332,-0.596 1.332,-1.331l-0,-0.894c-0,-0.735 -0.596,-1.331 -1.332,-1.331l-4.743,0c0,0 0,-9.915 0,-9.915c0,0 5.946,0 5.946,0c0.735,0 1.331,-0.596 1.331,-1.331l0,-0.894c0,-0.735 -0.596,-1.331 -1.331,-1.331l-8.295,0Z" style="fill:#a3a3a3;"/><path d="M313.496,108.851c1.179,-0.406 2.312,-1.114 3.392,-2.137c1.829,-1.73 2.729,-3.778 2.729,-6.13c0,-2.346 -0.882,-4.394 -2.669,-6.133c-1.777,-1.727 -3.842,-2.581 -6.186,-2.581l-1.326,0c-0.735,0 -1.331,0.596 -1.331,1.331l-0,23.12c-0,0.735 0.596,1.331 1.331,1.331l0.987,-0c0.735,-0 1.331,-0.596 1.331,-1.331l0,-4.013c0,-0 4.705,4.931 4.705,4.931c0.251,0.264 0.599,0.413 0.963,0.413l1.326,-0c0.532,-0 1.013,-0.317 1.223,-0.806c0.21,-0.488 0.109,-1.055 -0.257,-1.441l-6.218,-6.554Zm-1.742,-13.334c0.965,0.191 1.842,0.685 2.638,1.469c1.043,1.027 1.576,2.228 1.576,3.614c-0,1.385 -0.512,2.58 -1.522,3.59c-0.801,0.801 -1.696,1.292 -2.692,1.458l0,-10.131Z" style="fill:#a3a3a3;"/><path d="M337.839,97.108c0.292,0.533 0.909,0.801 1.498,0.65c0.589,-0.15 1.001,-0.681 1.001,-1.289l0,-1.572c0,-0.301 -0.102,-0.592 -0.289,-0.828c-1.368,-1.723 -3.212,-2.599 -5.544,-2.599c-1.695,-0 -3.113,0.494 -4.268,1.443c-1.219,1.002 -1.874,2.431 -1.874,4.327c0,-0 0,0.215 0,0.215c0,1.196 0.343,2.3 1.035,3.31c0.636,0.93 1.43,1.7 2.384,2.311c0.804,0.516 1.681,1.072 2.63,1.67c0.931,0.588 1.792,1.149 2.582,1.686c0.651,0.442 1.191,1.01 1.625,1.702c0.4,0.639 0.598,1.344 0.598,2.114c0,0 0,0.185 0,0.185c0,1.223 -0.399,2.209 -1.24,2.943c-0.883,0.771 -1.928,1.151 -3.133,1.151c-1.234,0 -2.273,-0.268 -3.104,-0.852c-0.843,-0.592 -1.48,-1.364 -1.913,-2.315c-0.26,-0.569 -0.882,-0.881 -1.494,-0.748c-0.612,0.133 -1.049,0.675 -1.049,1.301l0,1.664c0,0.264 0.079,0.522 0.225,0.741c1.681,2.508 4.043,3.765 7.088,3.765c2.302,0 4.229,-0.695 5.791,-2.052c1.616,-1.402 2.448,-3.281 2.448,-5.66c-0,0 -0,-0.308 -0,-0.308c-0,-1.199 -0.249,-2.297 -0.736,-3.296c-0.48,-0.983 -1.097,-1.81 -1.847,-2.486c-0.676,-0.609 -1.429,-1.186 -2.26,-1.728c-0.793,-0.518 -1.586,-1.004 -2.379,-1.459c-0.722,-0.414 -1.373,-0.832 -1.951,-1.256c-1.026,-0.762 -1.62,-1.553 -1.62,-2.475c0,-0 0,-0.154 0,-0.154c0,-0.662 0.184,-1.196 0.615,-1.577c0.465,-0.411 1.032,-0.607 1.693,-0.607c0.751,0 1.431,0.179 2.037,0.547c0.613,0.372 1.095,0.885 1.451,1.536Z" style="fill:#a3a3a3;"/><path d="M352.913,91.87c-0.735,0 -1.331,0.596 -1.331,1.331l0,23.12c0,0.735 0.596,1.331 1.331,1.331l1.018,-0c0.735,-0 1.331,-0.596 1.331,-1.331l0,-23.12c0,-0.735 -0.596,-1.331 -1.331,-1.331l-1.018,0Z" style="fill:#a3a3a3;"/><path d="M375.027,117.427c0.223,0.458 0.688,0.749 1.198,0.749c0.509,-0 0.974,-0.291 1.197,-0.749l11.501,-23.644c0.201,-0.412 0.175,-0.899 -0.068,-1.288c-0.244,-0.388 -0.67,-0.625 -1.129,-0.625l-0.987,0c-0.509,0 -0.974,0.291 -1.197,0.749c0,0 -6.492,13.345 -9.228,18.97c-2.752,-5.623 -9.285,-18.972 -9.285,-18.972c-0.223,-0.457 -0.687,-0.747 -1.196,-0.747l-1.11,0c-0.459,0 -0.885,0.237 -1.128,0.625c-0.244,0.389 -0.27,0.876 -0.069,1.288l11.501,23.644Z" style="fill:#a3a3a3;"/><path d="M398.364,91.87c-0.735,0 -1.331,0.596 -1.331,1.331l-0,23.12c-0,0.735 0.596,1.331 1.331,1.331l8.295,-0c0.735,-0 1.331,-0.596 1.331,-1.331l-0,-0.894c-0,-0.735 -0.596,-1.331 -1.331,-1.331l-5.946,-0c-0,-0 -0,-5.199 -0,-5.199c-0,0 4.743,0 4.743,0c0.735,0 1.331,-0.596 1.331,-1.331l0,-0.894c0,-0.735 -0.596,-1.331 -1.331,-1.331l-4.743,0c-0,0 -0,-9.915 -0,-9.915c-0,0 5.946,0 5.946,0c0.735,0 1.331,-0.596 1.331,-1.331l-0,-0.894c-0,-0.735 -0.596,-1.331 -1.331,-1.331l-8.295,0Z" style="fill:#a3a3a3;"/><path d="M438.301,93.201c-0,-0.735 -0.596,-1.331 -1.332,-1.331l-1.017,0c-0.735,0 -1.332,0.596 -1.332,1.331l0,23.12c0,0.735 0.597,1.331 1.332,1.331l8.171,-0c0.735,-0 1.331,-0.596 1.331,-1.331l0,-0.894c0,-0.735 -0.596,-1.331 -1.331,-1.331l-5.822,-0c-0,-0 -0,-20.895 -0,-20.895Z" style="fill:#a3a3a3;"/><path d="M466.102,92.063c-0.223,-0.458 -0.688,-0.748 -1.197,-0.747c-0.509,-0 -0.973,0.29 -1.196,0.748l-11.532,23.674c-0.201,0.413 -0.176,0.899 0.068,1.288c0.243,0.389 0.67,0.626 1.129,0.626l0.955,-0c0.509,-0 0.973,-0.29 1.196,-0.746l3.952,-8.071c-0,0 10.709,0 10.709,0c-0,0 4.011,8.078 4.011,8.078c0.225,0.452 0.687,0.739 1.193,0.739l1.079,-0c0.459,-0 0.886,-0.237 1.129,-0.626c0.243,-0.39 0.269,-0.877 0.067,-1.289l-11.563,-23.674Zm-1.282,5.737l3.682,7.48c0,-0 -7.326,-0 -7.326,-0l3.644,-7.48Z" style="fill:#a3a3a3;"/><path d="M487.415,91.87c-0.735,0 -1.331,0.596 -1.331,1.331l-0,23.12c-0,0.735 0.596,1.331 1.331,1.331l0.987,-0c2.501,-0 4.627,-0.852 6.383,-2.547c1.779,-1.719 2.657,-3.747 2.657,-6.075c-0,-2.302 -0.639,-4.204 -1.869,-5.723c-0.702,-0.867 -1.507,-1.562 -2.412,-2.084c0.115,-0.154 0.227,-0.318 0.335,-0.492c0.65,-1.048 0.955,-2.083 0.955,-3.091c0,-1.694 -0.603,-3.08 -1.786,-4.169c-1.149,-1.057 -2.566,-1.601 -4.263,-1.601l-0.987,0Zm2.318,11.743c0.963,0.202 2.039,0.685 2.781,1.446c1.021,1.045 1.533,2.292 1.533,3.74c0,1.45 -0.518,2.701 -1.548,3.756c-0.746,0.763 -1.816,1.251 -2.766,1.458l0,-10.4Zm0,-7.912c0.262,0.074 0.526,0.213 0.665,0.353c0.437,0.437 0.659,0.96 0.659,1.571c-0,0.633 -0.241,1.189 -0.701,1.675c-0.127,0.135 -0.371,0.278 -0.623,0.35l0,-3.949Z" style="fill:#a3a3a3;"/></g></g></svg>