<svg xmlns="http://www.w3.org/2000/svg" style="fill-rule:evenodd;clip-rule:evenodd;stroke-linejoin:round;stroke-miterlimit:2" viewBox="0 0 199 44"><path d="M61.45 33.543h-7.57l-1.816 5.368h-3.207l7.17-19.859h3.331l7.17 19.859h-3.262l-1.816-5.368Zm-6.785-2.477h6l-2.959-8.711h-.082l-2.959 8.711ZM81.997 31.672c0 4.501-2.408 7.391-6.042 7.391a4.913 4.913 0 0 1-4.555-2.532h-.069V43.7h-2.973V24.432h2.877v2.41h.055a5.137 5.137 0 0 1 4.61-2.56c3.675 0 6.097 2.903 6.097 7.39Zm-3.055 0c0-2.931-1.514-4.858-3.826-4.858-2.271 0-3.799 1.967-3.799 4.858 0 2.917 1.528 4.871 3.799 4.871 2.312 0 3.826-1.912 3.826-4.871ZM97.921 31.672c0 4.501-2.409 7.391-6.042 7.391a4.914 4.914 0 0 1-4.556-2.532h-.068V43.7h-2.973V24.432h2.876v2.41h.055a5.138 5.138 0 0 1 4.611-2.56c3.674 0 6.097 2.903 6.097 7.39Zm-3.056 0c0-2.931-1.514-4.858-3.826-4.858-2.271 0-3.798 1.967-3.798 4.858 0 2.917 1.527 4.871 3.798 4.871 2.312 0 3.826-1.912 3.826-4.871ZM100.315 19.052h2.973v19.859h-2.973zM118.757 34.659c-.399 2.628-2.959 4.432-6.234 4.432-4.212 0-6.827-2.823-6.827-7.35 0-4.541 2.629-7.487 6.703-7.487 4.005 0 6.523 2.753 6.523 7.142v1.019h-10.225v.18a3.788 3.788 0 0 0 3.756 4.103c.046 0 .092 0 .139-.002a3.287 3.287 0 0 0 3.344-2.037h2.821Zm-10.047-4.322h7.24a3.499 3.499 0 0 0-3.477-3.676l-.074.001h-.022a3.684 3.684 0 0 0-3.667 3.666v.009ZM144.561 38.911V24.295h-.095l-5.988 14.465h-2.285l-6-14.465h-.095v14.616h-2.808V19.052h3.563l6.429 15.675h.11l6.413-15.675h3.578v19.859h-2.822ZM163.212 38.911h-2.848v-2.49h-.07a4.531 4.531 0 0 1-4.486 2.655 5.234 5.234 0 0 1-.28.008c-2.648 0-4.827-2.179-4.827-4.827 0-.178.01-.357.029-.534v-9.291h2.973v8.713a2.902 2.902 0 0 0 3.096 3.371l.11.002a3.37 3.37 0 0 0 3.33-3.745v-8.341h2.973v14.479ZM171.666 24.267c3.206 0 5.505 1.777 5.573 4.336h-2.793a2.502 2.502 0 0 0-2.862-2.064c-1.612 0-2.685.743-2.685 1.872 0 .866.716 1.444 2.217 1.816l2.435.564c2.917.703 4.018 1.776 4.018 3.895 0 2.615-2.477 4.404-6.013 4.404-3.413 0-5.712-1.748-5.933-4.391h2.946a2.707 2.707 0 0 0 3.125 2.134c1.774 0 2.89-.73 2.89-1.886 0-.894-.551-1.376-2.065-1.762l-2.587-.633c-2.615-.633-3.936-1.967-3.936-3.976 0-2.56 2.297-4.309 5.67-4.309ZM179.885 20.621v-.035c0-.948.779-1.727 1.727-1.727.947 0 1.727.779 1.727 1.727 0 .947-.78 1.727-1.727 1.727h-.027a1.709 1.709 0 0 1-1.7-1.692Zm.233 3.811h2.973v14.479h-2.973V24.432ZM195.896 29.414a3.212 3.212 0 0 0-3.413-2.669c-2.285 0-3.799 1.913-3.799 4.927 0 3.082 1.527 4.941 3.826 4.941a3.131 3.131 0 0 0 3.386-2.602h2.862c-.368 3.094-3.172 5.364-6.275 5.079-4.129 0-6.827-2.822-6.827-7.418 0-4.5 2.698-7.418 6.799-7.418 3.125-.264 5.931 2.043 6.276 5.16h-2.835ZM39.876 6.271a8.518 8.518 0 0 0-5.403-4.847 17.523 17.523 0 0 0-4.86-.512H11.519a17.523 17.523 0 0 0-4.86.512 8.514 8.514 0 0 0-5.402 4.847 15.773 15.773 0 0 0-.796 5.699v18.094a15.775 15.775 0 0 0 .796 5.7 8.515 8.515 0 0 0 5.402 4.846c1.588.397 3.224.569 4.86.512h18.094a17.523 17.523 0 0 0 4.86-.512 8.52 8.52 0 0 0 5.403-4.846c.612-1.835.882-3.767.795-5.7V11.97a15.772 15.772 0 0 0-.795-5.699ZM29.794 28.568c-.1.495-.299.964-.586 1.38a3.507 3.507 0 0 1-1.1 1.017 4.402 4.402 0 0 1-1.396.508 5.35 5.35 0 0 1-2.156.109 2.99 2.99 0 0 1-1.451-.737 3.128 3.128 0 0 1-.159-4.49c.367-.374.812-.66 1.305-.838a13.59 13.59 0 0 1 2.211-.56l.781-.158c.336-.034.647-.193.872-.445.197-.29.283-.643.242-.991v-8.862c0-.677-.304-.862-.951-.738-.463.091-10.397 2.094-10.397 2.094a.83.83 0 0 0-.757 1.014v12.984c.009.493-.036.987-.134 1.47-.1.495-.299.965-.586 1.38a3.507 3.507 0 0 1-1.1 1.017c-.433.25-.905.424-1.396.516a5.373 5.373 0 0 1-2.157.109 3.02 3.02 0 0 1-1.45-.744 3.197 3.197 0 0 1-.159-4.49 3.48 3.48 0 0 1 1.305-.839c.72-.248 1.46-.435 2.211-.56l.781-.157c.335-.035.647-.194.871-.445.203-.286.297-.636.264-.985V11.174a2.592 2.592 0 0 1 .028-.403c.033-.299.176-.576.402-.776.217-.171.473-.287.745-.335l.005-.001 11.951-2.411c.103-.021.967-.174 1.064-.183a.912.912 0 0 1 1.009 1.057V27.09a6.84 6.84 0 0 1-.112 1.478ZM55.834 12.954H49.8V3.277h1.501v8.296h4.533v1.381ZM57.574 3.492l-.001-.055c0-.512.421-.934.934-.934.512 0 .934.422.934.934a.939.939 0 0 1-.934.934h-.001l-.044.001a.893.893 0 0 1-.888-.88Zm.216 2.159h1.434v7.303H57.79V5.651ZM64.213 5.51a2.503 2.503 0 0 1 2.857 2.052h-1.381a1.35 1.35 0 0 0-1.476-.878 1.212 1.212 0 0 0-1.414.952c0 .437.368.711 1.159.892l1.215.281a2.07 2.07 0 0 1 2.038 1.991 2.629 2.629 0 0 1-3.025 2.294 2.597 2.597 0 0 1-2.996-2.078h1.44c.256.632.916 1.01 1.591.911a1.297 1.297 0 0 0 1.535-.985 1.066 1.066 0 0 0-1.073-.892l-1.274-.295a2.095 2.095 0 0 1-2.032-2.038 2.49 2.49 0 0 1 2.836-2.207ZM71.043 3.834v1.851h1.583v1.214h-1.583v3.755a.924.924 0 0 0 1.032 1.1c.184-.001.368-.012.551-.034v1.2a4.7 4.7 0 0 1-.785.075c-1.603 0-2.24-.564-2.24-1.973V6.899h-1.159V5.685h1.159V3.834h1.442ZM80.615 10.981a2.974 2.974 0 0 1-3.164 2.113 3.333 3.333 0 0 1-3.374-3.768 3.385 3.385 0 0 1 3.338-3.816h.028l.079-.001a3.23 3.23 0 0 1 3.181 3.682v.503h-5.158v.081a1.939 1.939 0 0 0 1.923 2.093h.022a1.753 1.753 0 0 0 1.737-.887h1.388Zm-5.07-2.353h3.689a1.771 1.771 0 0 0-1.758-1.89h-.064a1.876 1.876 0 0 0-1.867 1.867v.023ZM82.629 5.651h1.388v1.161h.108a2.189 2.189 0 0 1 2.179-1.302 2.387 2.387 0 0 1 2.528 2.716v4.728H87.39V8.588a1.477 1.477 0 0 0-1.576-1.756 1.682 1.682 0 0 0-1.744 1.851v4.271h-1.441V5.651ZM94.648 9.299a3.476 3.476 0 0 1 3.443-3.789 3.476 3.476 0 0 1 3.443 3.789 3.476 3.476 0 0 1-3.443 3.795 3.476 3.476 0 0 1-3.443-3.795Zm5.405 0c0-1.582-.711-2.508-1.958-2.508-1.255 0-1.959.926-1.959 2.508 0 1.597.704 2.514 1.959 2.514 1.247 0 1.958-.925 1.958-2.514ZM103.462 5.651h1.388v1.161h.108a2.189 2.189 0 0 1 2.179-1.302 2.387 2.387 0 0 1 2.528 2.716v4.728h-1.442V8.588a1.477 1.477 0 0 0-1.576-1.756l-.079-.002a1.682 1.682 0 0 0-1.665 1.853v4.271h-1.441V5.651Z" style="fill:#cdcdcd;fill-rule:nonzero"/></svg>