<svg width="100%" height="100%" viewBox="0 0 199 44" version="1.1" xmlns="http://www.w3.org/2000/svg" style="fill-rule:evenodd;clip-rule:evenodd;stroke-linejoin:round;stroke-miterlimit:2;"><g id="logo_appleMusic"><g id="_Group_"><g id="_Group_2_"><path id="_Compound_Path_" d="M61.45,33.543l-7.57,0l-1.816,5.368l-3.207,-0l7.17,-19.859l3.331,0l7.17,19.859l-3.262,-0l-1.816,-5.368Zm-6.785,-2.477l6,-0l-2.959,-8.711l-0.082,0l-2.959,8.711Z" style="fill:#cdcdcd;fill-rule:nonzero;"/><path id="_Compound_Path_2_" d="M81.997,31.672c0,4.501 -2.408,7.391 -6.042,7.391c-1.875,0.099 -3.649,-0.888 -4.555,-2.532l-0.069,-0l0,7.169l-2.973,0l0,-19.268l2.877,0l-0,2.41l0.055,-0c0.946,-1.636 2.722,-2.622 4.61,-2.56c3.675,-0 6.097,2.903 6.097,7.39Zm-3.055,-0c-0,-2.931 -1.514,-4.858 -3.826,-4.858c-2.271,0 -3.799,1.967 -3.799,4.858c0,2.917 1.528,4.871 3.799,4.871c2.312,0 3.826,-1.912 3.826,-4.871l-0,-0Z" style="fill:#cdcdcd;fill-rule:nonzero;"/><path id="_Compound_Path_3_" d="M97.921,31.672c-0,4.501 -2.409,7.391 -6.042,7.391c-1.876,0.099 -3.65,-0.888 -4.556,-2.532l-0.068,-0l-0,7.169l-2.973,0l-0,-19.268l2.876,0l0,2.41l0.055,-0c0.946,-1.636 2.722,-2.622 4.611,-2.56c3.674,-0 6.097,2.903 6.097,7.39Zm-3.056,-0c0,-2.931 -1.514,-4.858 -3.826,-4.858c-2.271,0 -3.798,1.967 -3.798,4.858c-0,2.917 1.527,4.871 3.798,4.871c2.312,0 3.826,-1.912 3.826,-4.871Z" style="fill:#cdcdcd;fill-rule:nonzero;"/><rect id="_Compound_Path_4_" x="100.315" y="19.052" width="2.973" height="19.859" style="fill:#cdcdcd;fill-rule:nonzero;"/><path id="_Compound_Path_5_" d="M118.757,34.659c-0.399,2.628 -2.959,4.432 -6.234,4.432c-4.212,-0 -6.827,-2.823 -6.827,-7.35c0,-4.541 2.629,-7.487 6.703,-7.487c4.005,0 6.523,2.753 6.523,7.142l0,1.019l-10.225,-0l-0,0.18c-0.01,0.11 -0.015,0.221 -0.015,0.333c-0,2.068 1.702,3.77 3.771,3.77c0.046,0 0.092,-0 0.139,-0.002c1.438,0.134 2.803,-0.698 3.344,-2.037l2.821,-0l0,-0Zm-10.047,-4.322l7.24,0c0.003,-0.064 0.005,-0.129 0.005,-0.194c0,-1.91 -1.572,-3.482 -3.482,-3.482c-0.025,0 -0.049,0 -0.074,0.001c-0.008,-0 -0.015,-0 -0.022,-0c-2.012,-0 -3.667,1.655 -3.667,3.666c0,0.003 0,0.006 0,0.009Z" style="fill:#cdcdcd;fill-rule:nonzero;"/><path id="_Compound_Path_6_" d="M144.561,38.911l0,-14.616l-0.095,-0l-5.988,14.465l-2.285,0l-6,-14.465l-0.095,-0l-0,14.616l-2.808,-0l-0,-19.859l3.563,0l6.429,15.675l0.11,-0l6.413,-15.675l3.578,0l0,19.859l-2.822,-0Z" style="fill:#cdcdcd;fill-rule:nonzero;"/><path id="_Compound_Path_7_" d="M163.212,38.911l-2.848,-0l0,-2.49l-0.07,-0c-0.781,1.74 -2.584,2.807 -4.486,2.655c-0.093,0.005 -0.187,0.008 -0.28,0.008c-2.648,-0 -4.827,-2.179 -4.827,-4.827c-0,-0.178 0.01,-0.357 0.029,-0.534l0,-9.291l2.973,0l0,8.713c-0.028,0.163 -0.042,0.328 -0.042,0.494c-0,1.584 1.303,2.888 2.888,2.888c0.083,-0 0.167,-0.004 0.25,-0.011c0.036,0.001 0.073,0.002 0.11,0.002c1.84,-0 3.353,-1.514 3.353,-3.354c0,-0.131 -0.007,-0.261 -0.023,-0.391l0,-8.341l2.973,0l0,14.479l0,-0Z" style="fill:#cdcdcd;fill-rule:nonzero;"/><path id="_Compound_Path_8_" d="M171.666,24.267c3.206,0 5.505,1.777 5.573,4.336l-2.793,0c-0.194,-1.203 -1.244,-2.096 -2.463,-2.096c-0.134,-0 -0.267,0.011 -0.399,0.032c-1.612,-0 -2.685,0.743 -2.685,1.872c-0,0.866 0.716,1.444 2.217,1.816l2.435,0.564c2.917,0.703 4.018,1.776 4.018,3.895c0,2.615 -2.477,4.404 -6.013,4.404c-3.413,0 -5.712,-1.748 -5.933,-4.391l2.946,0c0.281,1.437 1.684,2.395 3.125,2.134c1.774,0 2.89,-0.73 2.89,-1.886c-0,-0.894 -0.551,-1.376 -2.065,-1.762l-2.587,-0.633c-2.615,-0.633 -3.936,-1.967 -3.936,-3.976c-0,-2.56 2.297,-4.309 5.67,-4.309Z" style="fill:#cdcdcd;fill-rule:nonzero;"/><path id="_Compound_Path_9_" d="M179.885,20.621c-0,-0.012 -0,-0.023 -0,-0.035c-0,-0.948 0.779,-1.727 1.727,-1.727c0.947,-0 1.727,0.779 1.727,1.727c0,0.947 -0.78,1.727 -1.727,1.727l-0.027,0c-0.929,0 -1.695,-0.762 -1.7,-1.692Zm0.233,3.811l2.973,0l-0,14.479l-2.973,-0l0,-14.479Z" style="fill:#cdcdcd;fill-rule:nonzero;"/><path id="_Compound_Path_10_" d="M195.896,29.414c-0.269,-1.633 -1.763,-2.802 -3.413,-2.669c-2.285,-0 -3.799,1.913 -3.799,4.927c0,3.082 1.527,4.941 3.826,4.941c1.629,0.162 3.123,-0.986 3.386,-2.602l2.862,0c-0.368,3.094 -3.172,5.364 -6.275,5.079c-4.129,0 -6.827,-2.822 -6.827,-7.418c0,-4.5 2.698,-7.418 6.799,-7.418c3.125,-0.264 5.931,2.043 6.276,5.16l-2.835,0Z" style="fill:#cdcdcd;fill-rule:nonzero;"/></g><path id="_Compound_Path_11_" d="M39.876,6.271c-0.987,-2.34 -2.971,-4.119 -5.403,-4.847c-1.588,-0.397 -3.224,-0.569 -4.86,-0.512l-18.094,0c-1.636,-0.057 -3.272,0.115 -4.86,0.512c-2.432,0.728 -4.416,2.507 -5.402,4.847c-0.613,1.835 -0.882,3.767 -0.796,5.699l0,18.094c-0.086,1.933 0.183,3.865 0.796,5.7c0.986,2.339 2.97,4.118 5.402,4.846c1.588,0.397 3.224,0.569 4.86,0.512l18.094,-0c1.636,0.057 3.272,-0.115 4.86,-0.512c2.432,-0.728 4.416,-2.507 5.403,-4.846c0.612,-1.835 0.882,-3.767 0.795,-5.7l-0,-18.094c0.087,-1.932 -0.183,-3.864 -0.795,-5.699Zm-10.082,22.297c-0.1,0.495 -0.299,0.964 -0.586,1.38c-0.289,0.414 -0.664,0.761 -1.1,1.017c-0.433,0.247 -0.905,0.419 -1.396,0.508c-0.704,0.182 -1.438,0.22 -2.156,0.109c-0.543,-0.107 -1.045,-0.362 -1.451,-0.737c-0.657,-0.592 -1.033,-1.437 -1.033,-2.322c-0,-0.808 0.313,-1.586 0.874,-2.168c0.367,-0.374 0.812,-0.66 1.305,-0.838c0.72,-0.248 1.46,-0.436 2.211,-0.56c0.26,-0.053 0.521,-0.105 0.781,-0.158c0.336,-0.034 0.647,-0.193 0.872,-0.445c0.197,-0.29 0.283,-0.643 0.242,-0.991l-0,-8.862c-0,-0.677 -0.304,-0.862 -0.951,-0.738c-0.463,0.091 -10.397,2.094 -10.397,2.094c-0.435,0.025 -0.779,0.389 -0.779,0.825c-0,0.063 0.007,0.127 0.022,0.189l-0,12.984c0.009,0.493 -0.036,0.987 -0.134,1.47c-0.1,0.495 -0.299,0.965 -0.586,1.38c-0.289,0.414 -0.664,0.761 -1.1,1.017c-0.433,0.25 -0.905,0.424 -1.396,0.516c-0.704,0.182 -1.438,0.219 -2.157,0.109c-0.542,-0.11 -1.044,-0.368 -1.45,-0.744c-1.273,-1.19 -1.344,-3.214 -0.159,-4.49c0.366,-0.374 0.812,-0.661 1.305,-0.839c0.72,-0.248 1.46,-0.435 2.211,-0.56c0.26,-0.052 0.52,-0.105 0.781,-0.157c0.335,-0.035 0.647,-0.194 0.871,-0.445c0.203,-0.286 0.297,-0.636 0.264,-0.985l0,-14.953c-0.001,-0.135 0.008,-0.269 0.028,-0.403c0.033,-0.299 0.176,-0.576 0.402,-0.776c0.217,-0.171 0.473,-0.287 0.745,-0.335l0.005,-0.001l11.951,-2.411c0.103,-0.021 0.967,-0.174 1.064,-0.183c0.038,-0.005 0.076,-0.007 0.114,-0.007c0.498,-0 0.908,0.41 0.908,0.908c0,0.052 -0.004,0.104 -0.013,0.156l0,18.968c0.016,0.496 -0.021,0.991 -0.112,1.478l0,0Z" style="fill:#cdcdcd;fill-rule:nonzero;"/></g><g><path d="M55.834,12.954l-6.034,-0l-0,-9.677l1.501,0l-0,8.296l4.533,-0l0,1.381l0,-0Z" style="fill:#cdcdcd;fill-rule:nonzero;"/><path d="M57.574,3.492c-0.001,-0.018 -0.001,-0.037 -0.001,-0.055c-0,-0.512 0.421,-0.934 0.934,-0.934c0.512,-0 0.934,0.422 0.934,0.934c-0,0.512 -0.422,0.934 -0.934,0.934c-0.001,0 -0.001,0 -0.001,0c-0.015,0.001 -0.029,0.001 -0.044,0.001c-0.484,0 -0.883,-0.396 -0.888,-0.88Zm0.216,2.159l1.434,-0l-0,7.303l-1.434,-0l-0,-7.303Z" style="fill:#cdcdcd;fill-rule:nonzero;"/><path d="M64.213,5.51c1.346,-0.219 2.634,0.707 2.857,2.052l-1.381,0c-0.216,-0.607 -0.839,-0.978 -1.476,-0.878c-0.649,-0.126 -1.287,0.303 -1.414,0.952c-0,0.437 0.368,0.711 1.159,0.892l1.215,0.281c1.096,0.011 2.001,0.896 2.038,1.991c-0.148,1.32 -1.276,2.328 -2.603,2.328c-0.142,0 -0.282,-0.011 -0.422,-0.034c-1.391,0.248 -2.741,-0.688 -2.996,-2.078l1.44,-0c0.256,0.632 0.916,1.01 1.591,0.911c0.691,0.15 1.383,-0.294 1.535,-0.985c-0.084,-0.521 -0.545,-0.904 -1.073,-0.892l-1.274,-0.295c-1.106,-0.028 -2.007,-0.932 -2.032,-2.038c0.126,-1.262 1.201,-2.234 2.469,-2.234c0.122,-0 0.245,0.009 0.367,0.027Z" style="fill:#cdcdcd;fill-rule:nonzero;"/><path d="M71.043,3.834l0,1.851l1.583,-0l-0,1.214l-1.583,0l0,3.755c-0.013,0.062 -0.019,0.125 -0.019,0.189c-0,0.505 0.415,0.92 0.92,0.92c0.044,0 0.088,-0.003 0.131,-0.009c0.184,-0.001 0.368,-0.012 0.551,-0.034l-0,1.2c-0.259,0.047 -0.522,0.072 -0.785,0.075c-1.603,-0 -2.24,-0.564 -2.24,-1.973l0,-4.123l-1.159,0l-0,-1.214l1.159,-0l0,-1.851l1.442,0Z" style="fill:#cdcdcd;fill-rule:nonzero;"/><path d="M80.615,10.981c-0.403,1.372 -1.743,2.267 -3.164,2.113c-0.029,0.001 -0.059,0.002 -0.088,0.002c-1.82,-0 -3.317,-1.498 -3.317,-3.318c-0,-0.151 0.01,-0.302 0.031,-0.452c-0.02,-0.149 -0.03,-0.298 -0.03,-0.448c0,-1.847 1.521,-3.368 3.368,-3.368c0.01,0 0.019,0 0.028,0c0.026,-0 0.053,-0.001 0.079,-0.001c1.764,0 3.215,1.452 3.215,3.215c-0,0.157 -0.011,0.313 -0.034,0.467l-0,0.503l-5.158,-0l0,0.081c-0.004,0.054 -0.007,0.109 -0.007,0.163c0,1.059 0.871,1.93 1.93,1.93c0.007,-0 0.014,-0 0.022,-0c0.704,0.084 1.392,-0.267 1.737,-0.887l1.388,0Zm-5.07,-2.353l3.689,0c0.004,-0.042 0.005,-0.085 0.005,-0.128c0,-0.966 -0.796,-1.762 -1.763,-1.762c-0.013,-0 -0.026,0 -0.039,0c-0.008,0 -0.017,0 -0.025,0c-1.024,0 -1.867,0.843 -1.867,1.867c0,0.008 0,0.016 0,0.023Z" style="fill:#cdcdcd;fill-rule:nonzero;"/><path d="M82.629,5.651l1.388,-0l0,1.161l0.108,-0c0.373,-0.853 1.251,-1.377 2.179,-1.302c0.059,-0.004 0.118,-0.006 0.177,-0.006c1.303,-0 2.376,1.072 2.376,2.376c0,0.115 -0.008,0.231 -0.025,0.346l-0,4.728l-1.442,-0l-0,-4.366c0.019,-0.096 0.029,-0.194 0.029,-0.292c-0,-0.807 -0.664,-1.47 -1.47,-1.47c-0.045,-0 -0.091,0.002 -0.135,0.006c-0.026,-0.001 -0.053,-0.002 -0.079,-0.002c-0.918,0 -1.674,0.756 -1.674,1.674c-0,0.06 0.003,0.12 0.009,0.179l0,4.271l-1.441,-0l-0,-7.303Z" style="fill:#cdcdcd;fill-rule:nonzero;"/><path d="M94.648,9.299c-0.011,-0.109 -0.016,-0.22 -0.016,-0.33c-0,-1.897 1.561,-3.459 3.459,-3.459c1.898,0 3.459,1.562 3.459,3.459c0,0.11 -0.005,0.221 -0.016,0.33c0.011,0.112 0.017,0.224 0.017,0.336c-0,1.898 -1.562,3.459 -3.46,3.459c-1.898,0 -3.46,-1.561 -3.46,-3.459c0,-0.112 0.006,-0.224 0.017,-0.336Zm5.405,0c0,-1.582 -0.711,-2.508 -1.958,-2.508c-1.255,0 -1.959,0.926 -1.959,2.508c0,1.597 0.704,2.514 1.959,2.514c1.247,0 1.958,-0.925 1.958,-2.514Z" style="fill:#cdcdcd;fill-rule:nonzero;"/><path d="M103.462,5.651l1.388,-0l0,1.161l0.108,-0c0.373,-0.853 1.251,-1.377 2.179,-1.302c0.059,-0.004 0.118,-0.006 0.177,-0.006c1.303,-0 2.376,1.072 2.376,2.376c-0,0.115 -0.009,0.231 -0.025,0.346l-0,4.728l-1.442,-0l-0,-4.366c0.019,-0.096 0.029,-0.194 0.029,-0.292c-0,-0.807 -0.664,-1.47 -1.47,-1.47c-0.046,-0 -0.091,0.002 -0.135,0.006c-0.027,-0.001 -0.053,-0.002 -0.079,-0.002c-0.918,0 -1.674,0.756 -1.674,1.674c-0,0.06 0.003,0.12 0.009,0.179l0,4.271l-1.441,-0l-0,-7.303Z" style="fill:#cdcdcd;fill-rule:nonzero;"/></g></g></svg>