<svg width="100%" height="100%" viewBox="0 0 764 58" version="1.1" xmlns="http://www.w3.org/2000/svg" style="fill-rule:evenodd;clip-rule:evenodd;stroke-linejoin:round;stroke-miterlimit:2;">
    <g transform="matrix(1,0,0,1,-130,-271)">
        <g transform="matrix(1,0,0,1,-101.797,-57.7867)">
            <path d="M231.977,374.719L231.977,330.927L262.509,330.927L262.509,336.707L239.389,336.707L239.389,349.967L259.993,349.967L259.993,355.679L239.389,355.679L239.389,369.007L262.509,369.007L262.509,374.719L231.977,374.719Z" style="fill-rule:nonzero;"/>
            <path d="M280.121,375.399C277.899,375.399 275.78,375.24 273.763,374.923C271.745,374.605 270.079,374.22 268.765,373.767L268.765,367.511C270.306,368.1 272.006,368.553 273.865,368.871C275.723,369.188 277.491,369.347 279.169,369.347C281.707,369.347 283.521,369.12 284.609,368.667C285.697,368.213 286.241,367.329 286.241,366.015C286.241,365.063 285.912,364.315 285.255,363.771C284.597,363.227 283.623,362.728 282.331,362.275C281.039,361.821 279.395,361.277 277.401,360.643C275.497,360.008 273.842,359.317 272.437,358.569C271.031,357.821 269.943,356.857 269.173,355.679C268.402,354.5 268.017,352.959 268.017,351.055C268.017,348.108 269.082,345.83 271.213,344.221C273.343,342.611 276.766,341.807 281.481,341.807C283.339,341.807 285.107,341.943 286.785,342.215C288.462,342.487 289.89,342.827 291.069,343.235L291.069,349.423C289.799,348.924 288.405,348.539 286.887,348.267C285.368,347.995 283.951,347.859 282.637,347.859C280.279,347.859 278.5,348.063 277.299,348.471C276.097,348.879 275.497,349.695 275.497,350.919C275.497,352.188 276.12,353.083 277.367,353.605C278.613,354.126 280.619,354.84 283.385,355.747C285.923,356.517 287.941,357.333 289.437,358.195C290.933,359.056 292.009,360.087 292.667,361.289C293.324,362.49 293.653,364.043 293.653,365.947C293.653,369.12 292.497,371.489 290.185,373.053C287.873,374.617 284.518,375.399 280.121,375.399Z" style="fill-rule:nonzero;"/>
            <path d="M312.217,375.399C308.771,375.399 306.199,374.481 304.499,372.645C302.799,370.809 301.949,368.304 301.949,365.131L301.949,348.267L297.189,348.267L297.189,342.487L301.949,342.487L301.949,335.075L309.293,332.831L309.293,342.487L317.861,342.487L317.385,348.267L309.293,348.267L309.293,364.723C309.293,366.581 309.723,367.885 310.585,368.633C311.446,369.381 312.851,369.755 314.801,369.755C316.025,369.755 317.317,369.528 318.677,369.075L318.677,374.311C316.909,375.036 314.755,375.399 312.217,375.399Z" style="fill-rule:nonzero;"/>
            <path d="M335.949,375.399C332.095,375.399 329.137,374.333 327.075,372.203C325.012,370.072 323.981,366.944 323.981,362.819L323.981,342.487L331.393,342.487L331.393,362.819C331.393,365.221 331.982,366.989 333.161,368.123C334.339,369.256 336.153,369.823 338.601,369.823C340.414,369.823 342.091,369.483 343.633,368.803C345.174,368.123 346.511,367.216 347.645,366.083L347.645,342.487L354.989,342.487L354.989,374.719L348.257,374.719L347.917,371.387C346.466,372.52 344.743,373.472 342.749,374.243C340.754,375.013 338.487,375.399 335.949,375.399Z" style="fill-rule:nonzero;"/>
            <path d="M376.953,375.399C374.051,375.399 371.49,374.9 369.269,373.903C367.047,372.905 365.325,371.251 364.101,368.939C362.877,366.627 362.265,363.521 362.265,359.623C362.265,355.769 362.922,352.517 364.237,349.865C365.551,347.213 367.376,345.207 369.711,343.847C372.045,342.487 374.686,341.807 377.633,341.807C379.582,341.807 381.316,342.033 382.835,342.487C384.353,342.94 385.815,343.643 387.221,344.595L387.221,328.887L394.633,328.887L394.633,374.719L388.309,374.719L387.833,371.523C386.382,372.837 384.795,373.812 383.073,374.447C381.35,375.081 379.31,375.399 376.953,375.399ZM378.925,369.823C382.234,369.823 384.999,368.689 387.221,366.423L387.221,350.307C385.09,348.403 382.415,347.451 379.197,347.451C376.069,347.451 373.711,348.493 372.125,350.579C370.538,352.664 369.745,355.701 369.745,359.691C369.745,363.544 370.481,366.196 371.955,367.647C373.428,369.097 375.751,369.823 378.925,369.823Z" style="fill-rule:nonzero;"/>
            <path d="M405.921,335.755L405.921,329.635L414.013,329.635L414.013,335.755L405.921,335.755ZM406.533,374.719L406.533,348.131L401.637,348.131L402.317,342.487L413.945,342.487L413.945,374.719L406.533,374.719Z" style="fill-rule:nonzero;"/>
            <path d="M438.017,375.399C432.214,375.399 427.964,373.948 425.267,371.047C422.569,368.145 421.221,363.997 421.221,358.603C421.221,353.208 422.581,349.06 425.301,346.159C428.021,343.257 432.259,341.807 438.017,341.807C443.819,341.807 448.081,343.257 450.801,346.159C453.521,349.06 454.881,353.208 454.881,358.603C454.881,363.997 453.532,368.145 450.835,371.047C448.137,373.948 443.865,375.399 438.017,375.399ZM438.017,369.143C441.417,369.143 443.831,368.315 445.259,366.661C446.687,365.006 447.401,362.32 447.401,358.603C447.401,354.885 446.687,352.211 445.259,350.579C443.831,348.947 441.417,348.131 438.017,348.131C434.662,348.131 432.271,348.947 430.843,350.579C429.415,352.211 428.701,354.885 428.701,358.603C428.701,362.32 429.415,365.006 430.843,366.661C432.271,368.315 434.662,369.143 438.017,369.143Z" style="fill-rule:nonzero;"/>
            <path d="M477.729,374.719L477.729,330.927L495.477,330.927C501.959,330.927 506.765,332.638 509.893,336.061C513.021,339.483 514.585,345.161 514.585,353.095C514.585,360.575 513.043,366.049 509.961,369.517C506.878,372.985 502.05,374.719 495.477,374.719L477.729,374.719ZM485.141,369.007L494.321,369.007C497.177,369.007 499.557,368.587 501.461,367.749C503.365,366.91 504.793,365.335 505.745,363.023C506.697,360.711 507.173,357.401 507.173,353.095C507.173,348.788 506.742,345.456 505.881,343.099C505.019,340.741 503.648,339.087 501.767,338.135C499.885,337.183 497.403,336.707 494.321,336.707L485.141,336.707L485.141,369.007Z" style="fill-rule:nonzero;"/>
            <path d="M537.297,375.399C531.494,375.399 527.244,373.948 524.547,371.047C521.849,368.145 520.501,363.997 520.501,358.603C520.501,353.208 521.861,349.06 524.581,346.159C527.301,343.257 531.539,341.807 537.297,341.807C543.099,341.807 547.361,343.257 550.081,346.159C552.801,349.06 554.161,353.208 554.161,358.603C554.161,363.997 552.812,368.145 550.115,371.047C547.417,373.948 543.145,375.399 537.297,375.399ZM537.297,369.143C540.697,369.143 543.111,368.315 544.539,366.661C545.967,365.006 546.681,362.32 546.681,358.603C546.681,354.885 545.967,352.211 544.539,350.579C543.111,348.947 540.697,348.131 537.297,348.131C533.942,348.131 531.551,348.947 530.123,350.579C528.695,352.211 527.981,354.885 527.981,358.603C527.981,362.32 528.695,365.006 530.123,366.661C531.551,368.315 533.942,369.143 537.297,369.143Z" style="fill-rule:nonzero;"/>
            <path d="M569.393,375.399C566.763,375.399 564.769,374.753 563.409,373.461C562.049,372.169 561.369,370.027 561.369,367.035L561.369,328.887L568.781,328.887L568.781,366.355C568.781,367.624 569.007,368.485 569.461,368.939C569.914,369.392 570.594,369.619 571.501,369.619C572.589,369.619 573.631,369.483 574.629,369.211L574.629,374.583C573.767,374.9 572.94,375.115 572.147,375.229C571.353,375.342 570.435,375.399 569.393,375.399Z" style="fill-rule:nonzero;"/>
            <path d="M598.089,375.399C595.731,375.399 593.691,375.081 591.969,374.447C590.246,373.812 588.659,372.837 587.209,371.523L586.801,374.719L580.409,374.719L580.409,328.887L587.821,328.887L587.821,344.595C590.631,342.736 594.009,341.807 597.953,341.807C602.531,341.807 606.147,343.11 608.799,345.717C611.451,348.323 612.777,352.528 612.777,358.331C612.777,364.179 611.462,368.485 608.833,371.251C606.203,374.016 602.622,375.399 598.089,375.399ZM596.117,369.823C599.471,369.823 601.84,368.871 603.223,366.967C604.605,365.063 605.297,362.184 605.297,358.331C605.297,354.341 604.549,351.531 603.053,349.899C601.557,348.267 599.199,347.451 595.981,347.451C592.626,347.451 589.906,348.38 587.821,350.239L587.821,366.423C589.951,368.689 592.717,369.823 596.117,369.823Z" style="fill-rule:nonzero;"/>
            <path d="M623.521,386.687C621.073,386.687 618.987,386.369 617.265,385.735L617.265,380.227C618.035,380.499 618.749,380.68 619.407,380.771C620.064,380.861 620.733,380.907 621.413,380.907C622.818,380.907 623.951,380.68 624.813,380.227C625.674,379.773 626.433,379.059 627.091,378.085C627.748,377.11 628.462,375.852 629.233,374.311L614.885,342.487L622.569,342.487L632.905,366.423L643.377,342.487L650.993,342.487L637.869,372.883C636.735,375.603 635.523,377.994 634.231,380.057C632.939,382.119 631.443,383.74 629.743,384.919C628.043,386.097 625.969,386.687 623.521,386.687Z" style="fill-rule:nonzero;"/>
            <path d="M671.257,374.719L687.985,330.927L696.281,330.927L712.873,374.719L705.257,374.719L700.905,363.431L683.293,363.431L678.941,374.719L671.257,374.719ZM684.449,357.719L699.681,357.719L692.065,337.659L684.449,357.719Z" style="fill-rule:nonzero;"/>
            <path d="M728.717,375.399C725.271,375.399 722.699,374.481 720.999,372.645C719.299,370.809 718.449,368.304 718.449,365.131L718.449,348.267L713.689,348.267L713.689,342.487L718.449,342.487L718.449,335.075L725.793,332.831L725.793,342.487L734.361,342.487L733.885,348.267L725.793,348.267L725.793,364.723C725.793,366.581 726.223,367.885 727.085,368.633C727.946,369.381 729.351,369.755 731.301,369.755C732.525,369.755 733.817,369.528 735.177,369.075L735.177,374.311C733.409,375.036 731.255,375.399 728.717,375.399Z" style="fill-rule:nonzero;"/>
            <path d="M740.821,374.719L740.821,342.487L747.621,342.487L747.961,345.887C749.547,344.617 751.293,343.62 753.197,342.895C755.101,342.169 757.141,341.807 759.317,341.807C761.629,341.807 763.431,342.181 764.723,342.929C766.015,343.677 767.001,344.708 767.681,346.023C769.177,344.799 770.899,343.79 772.849,342.997C774.798,342.203 777.133,341.807 779.853,341.807C783.57,341.807 786.313,342.759 788.081,344.663C789.849,346.567 790.733,349.491 790.733,353.435L790.733,374.719L783.457,374.719L783.457,354.183C783.457,351.689 782.935,349.944 781.893,348.947C780.85,347.949 779.15,347.451 776.793,347.451C775.251,347.451 773.789,347.723 772.407,348.267C771.024,348.811 769.834,349.627 768.837,350.715C768.973,351.213 769.063,351.735 769.109,352.279C769.154,352.823 769.177,353.412 769.177,354.047L769.177,374.719L762.309,374.719L762.309,354.251C762.309,351.893 761.901,350.171 761.085,349.083C760.269,347.995 758.727,347.451 756.461,347.451C754.874,347.451 753.367,347.825 751.939,348.573C750.511,349.321 749.23,350.216 748.097,351.259L748.097,374.719L740.821,374.719Z" style="fill-rule:nonzero;"/>
            <path d="M813.785,375.399C807.982,375.399 803.732,373.948 801.035,371.047C798.337,368.145 796.989,363.997 796.989,358.603C796.989,353.208 798.349,349.06 801.069,346.159C803.789,343.257 808.027,341.807 813.785,341.807C819.587,341.807 823.849,343.257 826.569,346.159C829.289,349.06 830.649,353.208 830.649,358.603C830.649,363.997 829.3,368.145 826.603,371.047C823.905,373.948 819.633,375.399 813.785,375.399ZM813.785,369.143C817.185,369.143 819.599,368.315 821.027,366.661C822.455,365.006 823.169,362.32 823.169,358.603C823.169,354.885 822.455,352.211 821.027,350.579C819.599,348.947 817.185,348.131 813.785,348.131C810.43,348.131 808.039,348.947 806.611,350.579C805.183,352.211 804.469,354.885 804.469,358.603C804.469,362.32 805.183,365.006 806.611,366.661C808.039,368.315 810.43,369.143 813.785,369.143Z" style="fill-rule:nonzero;"/>
            <path d="M848.261,375.399C846.039,375.399 843.92,375.24 841.903,374.923C839.885,374.605 838.219,374.22 836.905,373.767L836.905,367.511C838.446,368.1 840.146,368.553 842.005,368.871C843.863,369.188 845.631,369.347 847.309,369.347C849.847,369.347 851.661,369.12 852.749,368.667C853.837,368.213 854.381,367.329 854.381,366.015C854.381,365.063 854.052,364.315 853.395,363.771C852.737,363.227 851.763,362.728 850.471,362.275C849.179,361.821 847.535,361.277 845.541,360.643C843.637,360.008 841.982,359.317 840.577,358.569C839.171,357.821 838.083,356.857 837.313,355.679C836.542,354.5 836.157,352.959 836.157,351.055C836.157,348.108 837.222,345.83 839.353,344.221C841.483,342.611 844.906,341.807 849.621,341.807C851.479,341.807 853.247,341.943 854.925,342.215C856.602,342.487 858.03,342.827 859.209,343.235L859.209,349.423C857.939,348.924 856.545,348.539 855.027,348.267C853.508,347.995 852.091,347.859 850.777,347.859C848.419,347.859 846.64,348.063 845.439,348.471C844.237,348.879 843.637,349.695 843.637,350.919C843.637,352.188 844.26,353.083 845.507,353.605C846.753,354.126 848.759,354.84 851.525,355.747C854.063,356.517 856.081,357.333 857.577,358.195C859.073,359.056 860.149,360.087 860.807,361.289C861.464,362.49 861.793,364.043 861.793,365.947C861.793,369.12 860.637,371.489 858.325,373.053C856.013,374.617 852.658,375.399 848.261,375.399Z" style="fill-rule:nonzero;"/>
            <path d="M887.905,374.719L904.021,336.639L882.669,336.639L882.669,330.927L911.977,330.927L911.977,335.687L895.453,374.719L887.905,374.719Z" style="fill-rule:nonzero;"/>
            <rect x="917.213" y="368.939" width="6.256" height="5.78" style="fill-rule:nonzero;"/>
            <path d="M936.457,374.719L936.457,337.455L929.385,338.679L929.385,332.491L943.801,330.247L943.801,374.719L936.457,374.719Z" style="fill-rule:nonzero;"/>
            <rect x="951.077" y="368.939" width="6.256" height="5.78" style="fill-rule:nonzero;"/>
            <path d="M983.785,374.719L983.785,365.131L961.889,365.131L961.889,359.895L984.669,330.927L991.129,330.927L991.129,359.147L995.617,359.147L995.617,365.131L991.129,365.131L991.129,374.719L983.785,374.719ZM969.097,359.351L984.941,359.351L984.941,339.359L969.097,359.351Z" style="fill-rule:nonzero;"/>
        </g>
    </g>
</svg>
